<svg width="267" height="236" viewBox="0 0 267 236" version="1.1" xmlns="http://www.w3.org/2000/svg" xmlns:xlink="http://www.w3.org/1999/xlink">
<title>dom-tree-4</title>
<desc>Created using Figma</desc>
<g id="Canvas" transform="translate(37 -402)">
<clipPath id="clip-0" clip-rule="evenodd">
<path d="M -37 402L 230 402L 230 638L -37 638L -37 402Z" fill="#FFFFFF"/>
</clipPath>
<g id="dom-tree-4" clip-path="url(#clip-0)">
<path d="M -37 402L 230 402L 230 638L -37 638L -37 402Z" fill="#FFFFFF"/>
<g id="Ellipse">
<use xlink:href="#path0_fill" transform="translate(65 414)" fill="#F2C94C"/>
<mask id="mask0_outline_ins">
<use xlink:href="#path0_fill" fill="white" transform="translate(65 414)"/>
</mask>
<g mask="url(#mask0_outline_ins)">
<use xlink:href="#path1_stroke_2x" transform="translate(65 414)"/>
</g>
</g>
<g id="Ellipse">
<use xlink:href="#path0_fill" transform="translate(65 490)" fill="#F2C94C"/>
<mask id="mask1_outline_ins">
<use xlink:href="#path0_fill" fill="white" transform="translate(65 490)"/>
</mask>
<g mask="url(#mask1_outline_ins)">
<use xlink:href="#path1_stroke_2x" transform="translate(65 490)"/>
</g>
</g>
<g id="Ellipse">
<use xlink:href="#path0_fill" transform="translate(-6 568)" fill="#F2C94C"/>
<mask id="mask2_outline_ins">
<use xlink:href="#path0_fill" fill="white" transform="translate(-6 568)"/>
</mask>
<g mask="url(#mask2_outline_ins)">
<use xlink:href="#path1_stroke_2x" transform="translate(-6 568)"/>
</g>
</g>
<g id="Ellipse">
<use xlink:href="#path0_fill" transform="translate(141 568)" fill="#F2C94C"/>
<mask id="mask3_outline_ins">
<use xlink:href="#path0_fill" fill="white" transform="translate(141 568)"/>
</mask>
<g mask="url(#mask3_outline_ins)">
<use xlink:href="#path1_stroke_2x" transform="translate(141 568)"/>
</g>
</g>
<g id="Arrow">
<use xlink:href="#path2_stroke" transform="matrix(6.12323e-17 1 -1 6.12323e-17 94 472)"/>
</g>
<g id="Arrow 2">
<use xlink:href="#path3_stroke" transform="matrix(-0.737154 0.675725 -0.675725 -0.737154 76 541)"/>
</g>
<g id="Arrow 3">
<use xlink:href="#path4_stroke" transform="matrix(0.716726 0.697355 -0.697355 0.716726 116 538)"/>
</g>
<g id="document">
<use xlink:href="#path5_fill" transform="translate(71 438)"/>
</g>
<g id="html">
<use xlink:href="#path6_fill" transform="translate(71 514)"/>
</g>
<g id="head">
<use xlink:href="#path7_fill" transform="translate(0 590)"/>
</g>
<g id="body">
<use xlink:href="#path8_fill" transform="translate(148 590)"/>
</g>
</g>
</g>
<defs>
<path id="path0_fill" d="M 58 29C 58 45.0163 45.0163 58 29 58C 12.9837 58 0 45.0163 0 29C 0 12.9837 12.9837 0 29 0C 45.0163 0 58 12.9837 58 29Z"/>
<path id="path1_stroke_2x" d="M 56 29C 56 43.9117 43.9117 56 29 56L 29 60C 46.1208 60 60 46.1208 60 29L 56 29ZM 29 56C 14.0883 56 2 43.9117 2 29L -2 29C -2 46.1208 11.8792 60 29 60L 29 56ZM 2 29C 2 14.0883 14.0883 2 29 2L 29 -2C 11.8792 -2 -2 11.8792 -2 29L 2 29ZM 29 2C 43.9117 2 56 14.0883 56 29L 60 29C 60 11.8792 46.1208 -2 29 -2L 29 2Z"/>
<path id="path2_stroke" d="M 18.3536 0.353553C 18.5488 0.158291 18.5488 -0.158291 18.3536 -0.353553L 15.1716 -3.53553C 14.9763 -3.7308 14.6597 -3.7308 14.4645 -3.53553C 14.2692 -3.34027 14.2692 -3.02369 14.4645 -2.82843L 17.2929 0L 14.4645 2.82843C 14.2692 3.02369 14.2692 3.34027 14.4645 3.53553C 14.6597 3.7308 14.9763 3.7308 15.1716 3.53553L 18.3536 0.353553ZM 0 0.5L 18 0.5L 18 -0.5L 0 -0.5L 0 0.5Z"/>
<path id="path3_stroke" d="M 49.19 0.353553C 49.3853 0.158291 49.3853 -0.158291 49.19 -0.353553L 46.008 -3.53553C 45.8128 -3.7308 45.4962 -3.7308 45.3009 -3.53553C 45.1057 -3.34027 45.1057 -3.02369 45.3009 -2.82843L 48.1294 0L 45.3009 2.82843C 45.1057 3.02369 45.1057 3.34027 45.3009 3.53553C 45.4962 3.7308 45.8128 3.7308 46.008 3.53553L 49.19 0.353553ZM 0 0.5L 48.8365 0.5L 48.8365 -0.5L 0 -0.5L 0 0.5Z"/>
<path id="path4_stroke" d="M 51.9772 0.353553C 52.1725 0.158291 52.1725 -0.158291 51.9772 -0.353553L 48.7952 -3.53553C 48.5999 -3.7308 48.2834 -3.7308 48.0881 -3.53553C 47.8928 -3.34027 47.8928 -3.02369 48.0881 -2.82843L 50.9165 0L 48.0881 2.82843C 47.8928 3.02369 47.8928 3.34027 48.0881 3.53553C 48.2834 3.7308 48.5999 3.7308 48.7952 3.53553L 51.9772 0.353553ZM 0 0.5L 51.6236 0.5L 51.6236 -0.5L 0 -0.5L 0 0.5Z"/>
<path id="path5_fill" d="M 0.463867 6.31445C 0.463867 5.50391 0.655924 4.85286 1.04004 4.36133C 1.42415 3.86654 1.92708 3.61914 2.54883 3.61914C 3.16732 3.61914 3.65723 3.83073 4.01855 4.25391L 4.01855 1.5L 4.92188 1.5L 4.92188 9L 4.0918 9L 4.04785 8.43359C 3.68652 8.8763 3.18359 9.09766 2.53906 9.09766C 1.92708 9.09766 1.42741 8.84701 1.04004 8.3457C 0.655924 7.8444 0.463867 7.1901 0.463867 6.38281L 0.463867 6.31445ZM 1.36719 6.41699C 1.36719 7.01595 1.49089 7.4847 1.73828 7.82324C 1.98568 8.16178 2.32747 8.33105 2.76367 8.33105C 3.33659 8.33105 3.75488 8.07389 4.01855 7.55957L 4.01855 5.13281C 3.74837 4.63477 3.33333 4.38574 2.77344 4.38574C 2.33073 4.38574 1.98568 4.55664 1.73828 4.89844C 1.49089 5.24023 1.36719 5.74642 1.36719 6.41699ZM 6.08887 6.30957C 6.08887 5.79199 6.18978 5.3265 6.3916 4.91309C 6.59668 4.49967 6.87988 4.18066 7.24121 3.95605C 7.60579 3.73145 8.02083 3.61914 8.48633 3.61914C 9.20573 3.61914 9.78678 3.86816 10.2295 4.36621C 10.6755 4.86426 10.8984 5.52669 10.8984 6.35352L 10.8984 6.41699C 10.8984 6.93132 10.7992 7.39355 10.6006 7.80371C 10.4053 8.21061 10.1237 8.52799 9.75586 8.75586C 9.39128 8.98372 8.97135 9.09766 8.49609 9.09766C 7.77995 9.09766 7.19889 8.84863 6.75293 8.35059C 6.31022 7.85254 6.08887 7.19336 6.08887 6.37305L 6.08887 6.30957ZM 6.99707 6.41699C 6.99707 7.00293 7.13216 7.47331 7.40234 7.82812C 7.67578 8.18294 8.04036 8.36035 8.49609 8.36035C 8.95508 8.36035 9.31966 8.18132 9.58984 7.82324C 9.86003 7.46191 9.99512 6.95736 9.99512 6.30957C 9.99512 5.73014 9.85677 5.26139 9.58008 4.90332C 9.30664 4.54199 8.94206 4.36133 8.48633 4.36133C 8.04036 4.36133 7.68066 4.53874 7.40723 4.89355C 7.13379 5.24837 6.99707 5.75618 6.99707 6.41699ZM 14.1504 8.36035C 14.4727 8.36035 14.7542 8.2627 14.9951 8.06738C 15.236 7.87207 15.3695 7.62793 15.3955 7.33496L 16.25 7.33496C 16.2337 7.6377 16.1296 7.92578 15.9375 8.19922C 15.7454 8.47266 15.4883 8.69076 15.166 8.85352C 14.847 9.01628 14.5085 9.09766 14.1504 9.09766C 13.431 9.09766 12.8581 8.8584 12.4316 8.37988C 12.0085 7.89811 11.7969 7.24056 11.7969 6.40723L 11.7969 6.25586C 11.7969 5.74154 11.8913 5.28418 12.0801 4.88379C 12.2689 4.4834 12.5391 4.17253 12.8906 3.95117C 13.2454 3.72982 13.6637 3.61914 14.1455 3.61914C 14.738 3.61914 15.2295 3.79655 15.6201 4.15137C 16.014 4.50618 16.224 4.9668 16.25 5.5332L 15.3955 5.5332C 15.3695 5.19141 15.2393 4.91146 15.0049 4.69336C 14.7738 4.47201 14.4873 4.36133 14.1455 4.36133C 13.6865 4.36133 13.3301 4.52734 13.0762 4.85938C 12.8255 5.18815 12.7002 5.66504 12.7002 6.29004L 12.7002 6.46094C 12.7002 7.06966 12.8255 7.53841 13.0762 7.86719C 13.3268 8.19596 13.6849 8.36035 14.1504 8.36035ZM 20.5273 8.47754C 20.1758 8.89095 19.6598 9.09766 18.9795 9.09766C 18.4163 9.09766 17.9867 8.9349 17.6904 8.60938C 17.3975 8.2806 17.2493 7.79557 17.2461 7.1543L 17.2461 3.7168L 18.1494 3.7168L 18.1494 7.12988C 18.1494 7.93066 18.4749 8.33105 19.126 8.33105C 19.8161 8.33105 20.2751 8.07389 20.5029 7.55957L 20.5029 3.7168L 21.4062 3.7168L 21.4062 9L 20.5469 9L 20.5273 8.47754ZM 23.6328 3.7168L 23.6572 4.30273C 24.0446 3.84701 24.5671 3.61914 25.2246 3.61914C 25.9635 3.61914 26.4665 3.90234 26.7334 4.46875C 26.9092 4.21484 27.137 4.00977 27.417 3.85352C 27.7002 3.69727 28.0339 3.61914 28.418 3.61914C 29.5768 3.61914 30.166 4.23275 30.1855 5.45996L 30.1855 9L 29.2822 9L 29.2822 5.51367C 29.2822 5.13607 29.196 4.85449 29.0234 4.66895C 28.8509 4.48014 28.5612 4.38574 28.1543 4.38574C 27.819 4.38574 27.5407 4.48665 27.3193 4.68848C 27.098 4.88704 26.9694 5.1556 26.9336 5.49414L 26.9336 9L 26.0254 9L 26.0254 5.53809C 26.0254 4.76986 25.6494 4.38574 24.8975 4.38574C 24.305 4.38574 23.8997 4.63802 23.6816 5.14258L 23.6816 9L 22.7783 9L 22.7783 3.7168L 23.6328 3.7168ZM 33.7451 9.09766C 33.029 9.09766 32.4463 8.86328 31.9971 8.39453C 31.5479 7.92253 31.3232 7.29264 31.3232 6.50488L 31.3232 6.33887C 31.3232 5.81478 31.4225 5.34766 31.6211 4.9375C 31.8229 4.52409 32.1029 4.20182 32.4609 3.9707C 32.8223 3.73633 33.2129 3.61914 33.6328 3.61914C 34.3197 3.61914 34.8535 3.84538 35.2344 4.29785C 35.6152 4.75033 35.8057 5.39811 35.8057 6.24121L 35.8057 6.61719L 32.2266 6.61719C 32.2396 7.13802 32.391 7.55957 32.6807 7.88184C 32.9736 8.20085 33.3447 8.36035 33.7939 8.36035C 34.113 8.36035 34.3831 8.29525 34.6045 8.16504C 34.8258 8.03483 35.0195 7.8623 35.1855 7.64746L 35.7373 8.07715C 35.2946 8.75749 34.6305 9.09766 33.7451 9.09766ZM 33.6328 4.36133C 33.2682 4.36133 32.9622 4.49479 32.7148 4.76172C 32.4674 5.02539 32.3145 5.39648 32.2559 5.875L 34.9023 5.875L 34.9023 5.80664C 34.8763 5.34766 34.7526 4.99284 34.5312 4.74219C 34.3099 4.48828 34.0104 4.36133 33.6328 4.36133ZM 37.71 3.7168L 37.7393 4.38086C 38.1429 3.87305 38.6702 3.61914 39.3213 3.61914C 40.4378 3.61914 41.001 4.24902 41.0107 5.50879L 41.0107 9L 40.1074 9L 40.1074 5.50391C 40.1042 5.12305 40.0163 4.84147 39.8438 4.65918C 39.6745 4.47689 39.4092 4.38574 39.0479 4.38574C 38.7549 4.38574 38.4977 4.46387 38.2764 4.62012C 38.055 4.77637 37.8825 4.98145 37.7588 5.23535L 37.7588 9L 36.8555 9L 36.8555 3.7168L 37.71 3.7168ZM 43.5986 2.4375L 43.5986 3.7168L 44.585 3.7168L 44.585 4.41504L 43.5986 4.41504L 43.5986 7.69141C 43.5986 7.90299 43.6426 8.0625 43.7305 8.16992C 43.8184 8.27409 43.9681 8.32617 44.1797 8.32617C 44.2839 8.32617 44.4271 8.30664 44.6094 8.26758L 44.6094 9C 44.3717 9.0651 44.1406 9.09766 43.916 9.09766C 43.5124 9.09766 43.208 8.97559 43.0029 8.73145C 42.7979 8.4873 42.6953 8.14062 42.6953 7.69141L 42.6953 4.41504L 41.7334 4.41504L 41.7334 3.7168L 42.6953 3.7168L 42.6953 2.4375L 43.5986 2.4375Z"/>
<path id="path6_fill" d="M 14.0967 4.35645C 14.4971 3.86491 15.0179 3.61914 15.6592 3.61914C 16.7757 3.61914 17.3389 4.24902 17.3486 5.50879L 17.3486 9L 16.4453 9L 16.4453 5.50391C 16.4421 5.12305 16.3542 4.84147 16.1816 4.65918C 16.0124 4.47689 15.7471 4.38574 15.3857 4.38574C 15.0928 4.38574 14.8356 4.46387 14.6143 4.62012C 14.3929 4.77637 14.2204 4.98145 14.0967 5.23535L 14.0967 9L 13.1934 9L 13.1934 1.5L 14.0967 1.5L 14.0967 4.35645ZM 19.9268 2.4375L 19.9268 3.7168L 20.9131 3.7168L 20.9131 4.41504L 19.9268 4.41504L 19.9268 7.69141C 19.9268 7.90299 19.9707 8.0625 20.0586 8.16992C 20.1465 8.27409 20.2962 8.32617 20.5078 8.32617C 20.612 8.32617 20.7552 8.30664 20.9375 8.26758L 20.9375 9C 20.6999 9.0651 20.4688 9.09766 20.2441 9.09766C 19.8405 9.09766 19.5361 8.97559 19.3311 8.73145C 19.126 8.4873 19.0234 8.14062 19.0234 7.69141L 19.0234 4.41504L 18.0615 4.41504L 18.0615 3.7168L 19.0234 3.7168L 19.0234 2.4375L 19.9268 2.4375ZM 22.8223 3.7168L 22.8467 4.30273C 23.234 3.84701 23.7565 3.61914 24.4141 3.61914C 25.153 3.61914 25.6559 3.90234 25.9229 4.46875C 26.0986 4.21484 26.3265 4.00977 26.6064 3.85352C 26.8896 3.69727 27.2233 3.61914 27.6074 3.61914C 28.7663 3.61914 29.3555 4.23275 29.375 5.45996L 29.375 9L 28.4717 9L 28.4717 5.51367C 28.4717 5.13607 28.3854 4.85449 28.2129 4.66895C 28.0404 4.48014 27.7507 4.38574 27.3438 4.38574C 27.0085 4.38574 26.7301 4.48665 26.5088 4.68848C 26.2874 4.88704 26.1589 5.1556 26.123 5.49414L 26.123 9L 25.2148 9L 25.2148 5.53809C 25.2148 4.76986 24.8389 4.38574 24.0869 4.38574C 23.4945 4.38574 23.0892 4.63802 22.8711 5.14258L 22.8711 9L 21.9678 9L 21.9678 3.7168L 22.8223 3.7168ZM 31.7236 9L 30.8203 9L 30.8203 1.5L 31.7236 1.5L 31.7236 9Z"/>
<path id="path7_fill" d="M 13.1396 4.35645C 13.54 3.86491 14.0609 3.61914 14.7021 3.61914C 15.8187 3.61914 16.3818 4.24902 16.3916 5.50879L 16.3916 9L 15.4883 9L 15.4883 5.50391C 15.485 5.12305 15.3971 4.84147 15.2246 4.65918C 15.0553 4.47689 14.79 4.38574 14.4287 4.38574C 14.1357 4.38574 13.8786 4.46387 13.6572 4.62012C 13.4359 4.77637 13.2633 4.98145 13.1396 5.23535L 13.1396 9L 12.2363 9L 12.2363 1.5L 13.1396 1.5L 13.1396 4.35645ZM 19.9365 9.09766C 19.2204 9.09766 18.6377 8.86328 18.1885 8.39453C 17.7393 7.92253 17.5146 7.29264 17.5146 6.50488L 17.5146 6.33887C 17.5146 5.81478 17.6139 5.34766 17.8125 4.9375C 18.0143 4.52409 18.2943 4.20182 18.6523 3.9707C 19.0137 3.73633 19.4043 3.61914 19.8242 3.61914C 20.5111 3.61914 21.0449 3.84538 21.4258 4.29785C 21.8066 4.75033 21.9971 5.39811 21.9971 6.24121L 21.9971 6.61719L 18.418 6.61719C 18.431 7.13802 18.5824 7.55957 18.8721 7.88184C 19.165 8.20085 19.5361 8.36035 19.9854 8.36035C 20.3044 8.36035 20.5745 8.29525 20.7959 8.16504C 21.0173 8.03483 21.2109 7.8623 21.377 7.64746L 21.9287 8.07715C 21.486 8.75749 20.8219 9.09766 19.9365 9.09766ZM 19.8242 4.36133C 19.4596 4.36133 19.1536 4.49479 18.9062 4.76172C 18.6589 5.02539 18.5059 5.39648 18.4473 5.875L 21.0938 5.875L 21.0938 5.80664C 21.0677 5.34766 20.944 4.99284 20.7227 4.74219C 20.5013 4.48828 20.2018 4.36133 19.8242 4.36133ZM 26.3086 9C 26.2565 8.89583 26.2142 8.71029 26.1816 8.44336C 25.7617 8.87956 25.2604 9.09766 24.6777 9.09766C 24.1569 9.09766 23.7288 8.95117 23.3936 8.6582C 23.0615 8.36198 22.8955 7.98763 22.8955 7.53516C 22.8955 6.98503 23.1038 6.55859 23.5205 6.25586C 23.9404 5.94987 24.5296 5.79688 25.2881 5.79688L 26.167 5.79688L 26.167 5.38184C 26.167 5.06608 26.0726 4.81543 25.8838 4.62988C 25.695 4.44108 25.4167 4.34668 25.0488 4.34668C 24.7266 4.34668 24.4564 4.42806 24.2383 4.59082C 24.0202 4.75358 23.9111 4.95052 23.9111 5.18164L 23.0029 5.18164C 23.0029 4.91797 23.0957 4.66406 23.2812 4.41992C 23.4701 4.17253 23.724 3.97721 24.043 3.83398C 24.3652 3.69076 24.7184 3.61914 25.1025 3.61914C 25.7113 3.61914 26.1882 3.77214 26.5332 4.07812C 26.8783 4.38086 27.0573 4.79915 27.0703 5.33301L 27.0703 7.76465C 27.0703 8.24967 27.1322 8.63542 27.2559 8.92188L 27.2559 9L 26.3086 9ZM 24.8096 8.31152C 25.0928 8.31152 25.3613 8.23828 25.6152 8.0918C 25.8691 7.94531 26.0531 7.75488 26.167 7.52051L 26.167 6.43652L 25.459 6.43652C 24.3522 6.43652 23.7988 6.76042 23.7988 7.4082C 23.7988 7.69141 23.8932 7.91276 24.082 8.07227C 24.2708 8.23177 24.5133 8.31152 24.8096 8.31152ZM 28.2666 6.31445C 28.2666 5.50391 28.4587 4.85286 28.8428 4.36133C 29.2269 3.86654 29.7298 3.61914 30.3516 3.61914C 30.9701 3.61914 31.46 3.83073 31.8213 4.25391L 31.8213 1.5L 32.7246 1.5L 32.7246 9L 31.8945 9L 31.8506 8.43359C 31.4893 8.8763 30.9863 9.09766 30.3418 9.09766C 29.7298 9.09766 29.2301 8.84701 28.8428 8.3457C 28.4587 7.8444 28.2666 7.1901 28.2666 6.38281L 28.2666 6.31445ZM 29.1699 6.41699C 29.1699 7.01595 29.2936 7.4847 29.541 7.82324C 29.7884 8.16178 30.1302 8.33105 30.5664 8.33105C 31.1393 8.33105 31.5576 8.07389 31.8213 7.55957L 31.8213 5.13281C 31.5511 4.63477 31.1361 4.38574 30.5762 4.38574C 30.1335 4.38574 29.7884 4.55664 29.541 4.89844C 29.2936 5.24023 29.1699 5.74642 29.1699 6.41699Z"/>
<path id="path8_fill" d="M 16.8066 6.41699C 16.8066 7.22428 16.6211 7.8737 16.25 8.36523C 15.8789 8.85352 15.3809 9.09766 14.7559 9.09766C 14.0885 9.09766 13.5726 8.86165 13.208 8.38965L 13.1641 9L 12.334 9L 12.334 1.5L 13.2373 1.5L 13.2373 4.29785C 13.6019 3.84538 14.1048 3.61914 14.7461 3.61914C 15.3874 3.61914 15.8903 3.86165 16.2549 4.34668C 16.6227 4.83171 16.8066 5.49577 16.8066 6.33887L 16.8066 6.41699ZM 15.9033 6.31445C 15.9033 5.69922 15.7845 5.22396 15.5469 4.88867C 15.3092 4.55339 14.9674 4.38574 14.5215 4.38574C 13.9258 4.38574 13.4977 4.66243 13.2373 5.21582L 13.2373 7.50098C 13.514 8.05436 13.9453 8.33105 14.5312 8.33105C 14.9642 8.33105 15.3011 8.16341 15.542 7.82812C 15.7829 7.49284 15.9033 6.98828 15.9033 6.31445ZM 17.71 6.30957C 17.71 5.79199 17.8109 5.3265 18.0127 4.91309C 18.2178 4.49967 18.501 4.18066 18.8623 3.95605C 19.2269 3.73145 19.6419 3.61914 20.1074 3.61914C 20.8268 3.61914 21.4079 3.86816 21.8506 4.36621C 22.2965 4.86426 22.5195 5.52669 22.5195 6.35352L 22.5195 6.41699C 22.5195 6.93132 22.4202 7.39355 22.2217 7.80371C 22.0264 8.21061 21.7448 8.52799 21.377 8.75586C 21.0124 8.98372 20.5924 9.09766 20.1172 9.09766C 19.401 9.09766 18.82 8.84863 18.374 8.35059C 17.9313 7.85254 17.71 7.19336 17.71 6.37305L 17.71 6.30957ZM 18.6182 6.41699C 18.6182 7.00293 18.7533 7.47331 19.0234 7.82812C 19.2969 8.18294 19.6615 8.36035 20.1172 8.36035C 20.5762 8.36035 20.9408 8.18132 21.2109 7.82324C 21.4811 7.46191 21.6162 6.95736 21.6162 6.30957C 21.6162 5.73014 21.4779 5.26139 21.2012 4.90332C 20.9277 4.54199 20.5632 4.36133 20.1074 4.36133C 19.6615 4.36133 19.3018 4.53874 19.0283 4.89355C 18.7549 5.24837 18.6182 5.75618 18.6182 6.41699ZM 23.4326 6.31445C 23.4326 5.50391 23.6247 4.85286 24.0088 4.36133C 24.3929 3.86654 24.8958 3.61914 25.5176 3.61914C 26.1361 3.61914 26.626 3.83073 26.9873 4.25391L 26.9873 1.5L 27.8906 1.5L 27.8906 9L 27.0605 9L 27.0166 8.43359C 26.6553 8.8763 26.1523 9.09766 25.5078 9.09766C 24.8958 9.09766 24.3962 8.84701 24.0088 8.3457C 23.6247 7.8444 23.4326 7.1901 23.4326 6.38281L 23.4326 6.31445ZM 24.3359 6.41699C 24.3359 7.01595 24.4596 7.4847 24.707 7.82324C 24.9544 8.16178 25.2962 8.33105 25.7324 8.33105C 26.3053 8.33105 26.7236 8.07389 26.9873 7.55957L 26.9873 5.13281C 26.7171 4.63477 26.3021 4.38574 25.7422 4.38574C 25.2995 4.38574 24.9544 4.55664 24.707 4.89844C 24.4596 5.24023 24.3359 5.74642 24.3359 6.41699ZM 31.0254 7.67676L 32.2559 3.7168L 33.2227 3.7168L 31.0986 9.81543C 30.7699 10.6943 30.2474 11.1338 29.5312 11.1338L 29.3604 11.1191L 29.0234 11.0557L 29.0234 10.3232L 29.2676 10.3428C 29.5736 10.3428 29.8112 10.2809 29.9805 10.1572C 30.153 10.0335 30.2946 9.80729 30.4053 9.47852L 30.6055 8.94141L 28.7207 3.7168L 29.707 3.7168L 31.0254 7.67676Z"/>
</defs>
</svg>
